<?xml version="1.0" encoding="UTF-8"?>
<svg width="24px" height="21px" viewBox="0 0 24 21" version="1.1" xmlns="http://www.w3.org/2000/svg" xmlns:xlink="http://www.w3.org/1999/xlink">
    <title>Path_1-2</title>
    <g id="Page-1" stroke="none" stroke-width="1" fill="none" fill-rule="evenodd">
        <g id="Menu-Home-Desk" transform="translate(-1033.000000, -70.000000)" fill="#FFFFFF" fill-rule="nonzero">
            <g id="Group-2">
                <g id="Group_7">
                    <g id="Group_5" transform="translate(1033.000000, 68.600000)">
                        <path d="M17,1.4 C14.8618973,1.4000066 12.8662676,2.47217871 11.686,4.255 C10.5065153,2.47336035 8.51268487,1.40134796 6.376,1.4 C4.67341858,1.36132755 3.02909147,2.02065669 1.82487408,3.22487408 C0.620656685,4.42909147 -0.0386724499,6.07341858 -7.86083438e-14,7.776 C-7.86083438e-14,15.41 10.733,21.222 11.189,21.466 L11.689,21.733 L12.189,21.466 C12.645,21.223 23.378,15.411 23.378,7.776 C23.416693,6.07306341 22.7570931,4.42841679 21.5524354,3.22413689 C20.3477778,2.01985698 18.7029244,1.36077289 17,1.4 L17,1.4 Z M11.69,19.307 C9.656,18.107 2.126,13.307 2.126,7.777 C2.08680067,6.63799958 2.52207214,5.53381563 3.32794389,4.72794389 C4.13381563,3.92207214 5.23799958,3.48680067 6.377,3.526 C8.72384845,3.52820517 10.6257948,5.43015155 10.628,7.777 L12.753,7.777 C12.7546497,5.43132024 14.6543238,3.52940963 17,3.525 C18.1390004,3.48580067 19.2431844,3.92107214 20.0490561,4.72694389 C20.8549279,5.53281563 21.2901993,6.63699958 21.251,7.776 C21.254,13.306 13.724,18.11 11.69,19.307 Z" id="Path_1-2"></path>
                    </g>
                </g>
            </g>
        </g>
    </g>
</svg>